<svg id="Layer_1" data-name="Layer 1" xmlns="http://www.w3.org/2000/svg" viewBox="0 0 604 300.39"><defs><style>.cls-1{fill:#fff;}</style></defs><title>VR-logo</title><path class="cls-1" d="M571.61,0H32.39A32.39,32.39,0,0,0,0,32.39V268a32.39,32.39,0,0,0,32.39,32.39H193.84a53.31,53.31,0,0,0,46.88-27.93l40.1-74.07a24.09,24.09,0,0,1,42.37,0l40.1,74.07a53.31,53.31,0,0,0,46.88,27.93H571.61A32.39,32.39,0,0,0,604,268V32.39A32.39,32.39,0,0,0,571.61,0ZM150.3,218.69a73.3,73.3,0,1,1,73.3-73.3A73.3,73.3,0,0,1,150.3,218.69Zm303.4,0a73.3,73.3,0,1,1,73.3-73.3A73.3,73.3,0,0,1,453.7,218.69Z"/></svg>